<svg class="thumb" width="1000" height="1000" viewBox="0,0,600,600" xmlns="http://www.w3.org/2000/svg" xmlns:inkscape="http://www.inkscape.org/namespaces/inkscape" xmlns:sodipodi="http://sodipodi.sourceforge.net/DTD/sodipodi-0.dtd" xmlns:xlink="http://www.w3.org/1999/xlink" xmlns:ns1="http://www.inkscape.org/namespaces/inkscape" xmlns:sketch="http://www.bohemiancoding.com/sketch/ns">
  <defs></defs>
  <g transform="matrix(2.0084,0,0,2.0084,-156.6447,-13.3005)">
    <g transform="matrix(4.261,0,0,4.261,71.6292,26.2552)">
      <svg width="67" height="67" viewBox="6.5,6.5,67,67" class="thumb">
        <defs>
          <linearGradient x1="0" y1="0.5" x2="1" y2="0.5" id="linearGradientSkcagwz3c4">
            <stop offset="0%" stop-color="#d19fe4"></stop>
            <stop offset="100%" stop-color="#d19fe4"></stop>
          </linearGradient>
        </defs>
        <g></g>
        <g></g>
        <g></g>
        <g></g>
        <g>
          <path d="M40,68.5c-15.7,0-28.5-12.8-28.5-28.5S24.3,11.5,40,11.5S68.5,24.3,68.5,40S55.7,68.5,40,68.5z M40,13.5   c-14.6,0-26.5,11.9-26.5,26.5S25.4,66.5,40,66.5S66.5,54.6,66.5,40S54.6,13.5,40,13.5z" fill="url('#linearGradientSkcagwz3c4')" stroke="none" style=""></path>
        </g>
      </svg>
    </g>
    <g transform="matrix(4.261,0,0,4.261,95.6292,15.2552)">
      <svg width="67" height="67" viewBox="6.5,6.5,67,67" class="thumb">
        <defs>
          <linearGradient x1="0" y1="0.5" x2="1" y2="0.5" id="linearGradientSkcagwz3ca">
            <stop offset="0%" stop-color="#d19fe4"></stop>
            <stop offset="100%" stop-color="#d19fe4"></stop>
          </linearGradient>
        </defs>
        <g></g>
        <g></g>
        <g></g>
        <g></g>
        <g>
          <path d="M40,68.5c-15.7,0-28.5-12.8-28.5-28.5S24.3,11.5,40,11.5S68.5,24.3,68.5,40S55.7,68.5,40,68.5z M40,13.5   c-14.6,0-26.5,11.9-26.5,26.5S25.4,66.5,40,66.5S66.5,54.6,66.5,40S54.6,13.5,40,13.5z" fill="url('#linearGradientSkcagwz3ca')" stroke="none" style=""></path>
        </g>
      </svg>
    </g>
    <g transform="matrix(4.261,0,0,4.261,77.6292,0.2552)">
      <svg width="67" height="67" viewBox="6.5,6.5,67,67" class="thumb">
        <defs>
          <linearGradient x1="0" y1="0.5" x2="1" y2="0.5" id="linearGradientSkcagwz3cg">
            <stop offset="0%" stop-color="#a55fc1"></stop>
            <stop offset="100%" stop-color="#a55fc1"></stop>
          </linearGradient>
        </defs>
        <g></g>
        <g></g>
        <g></g>
        <g></g>
        <g>
          <path d="M40,68.5c-15.7,0-28.5-12.8-28.5-28.5S24.3,11.5,40,11.5S68.5,24.3,68.5,40S55.7,68.5,40,68.5z M40,13.5   c-14.6,0-26.5,11.9-26.5,26.5S25.4,66.5,40,66.5S66.5,54.6,66.5,40S54.6,13.5,40,13.5z" fill="url('#linearGradientSkcagwz3cg')" stroke="none" style=""></path>
        </g>
      </svg>
    </g>
    <g transform="matrix(4.261,0,0,4.261,97.6292,20.2552)">
      <svg width="67" height="67" viewBox="6.5,6.5,67,67" class="thumb">
        <defs>
          <linearGradient x1="0" y1="0.5" x2="1" y2="0.5" id="linearGradientSkcagwz3cm">
            <stop offset="0%" stop-color="#650d88"></stop>
            <stop offset="100%" stop-color="#650d88"></stop>
          </linearGradient>
        </defs>
        <g></g>
        <g></g>
        <g></g>
        <g></g>
        <g>
          <path d="M40,68.5c-15.7,0-28.5-12.8-28.5-28.5S24.3,11.5,40,11.5S68.5,24.3,68.5,40S55.7,68.5,40,68.5z M40,13.5   c-14.6,0-26.5,11.9-26.5,26.5S25.4,66.5,40,66.5S66.5,54.6,66.5,40S54.6,13.5,40,13.5z" fill="url('#linearGradientSkcagwz3cm')" stroke="none" style=""></path>
        </g>
      </svg>
    </g>
    <g transform="matrix(0.793,0,0,0.793,170.8882,123.3122)">
      <svg width="145.751953125" height="121" style="overflow: visible;">
        <defs>
          <linearGradient x1="0" y1="0.5" x2="1" y2="0.5" id="linearGradientSkcagwz3cy">
            <stop offset="0%" stop-color="#000000"></stop>
            <stop offset="100%" stop-color="#000000"></stop>
          </linearGradient>
        </defs>
        <g transform="matrix(1,0,0,1,0,45.75)">
          <path d="M 49.9-71.09L 49.9-0.68L 45.7-0.68L 41.31-54L 33.2-5.52L 23.88-5.52L 16.8-52.88L 10.6-1.22L 2.69-1.71L 8.98-70.9L 22.71-70.9L 29.2-21L 36.28-71.09L 49.9-71.09ZM 89.06578124999999-69.82L 98.87578124999999-69.82Q 94.33578124999998-52.44  90.45578124999999-35.16Q 86.57578124999998-17.87  83.05578124999998-0.29L 83.05578124999998-0.29L 70.45578124999999-0.39Q 68.70578124999999-9.13  66.99578125-17.82Q 65.28578124999999-26.51  63.52578124999999-35.21Q 61.76578124999999-43.9  59.88578124999999-52.54Q 58.005781249999984-61.18  55.855781249999986-69.82L 55.855781249999986-69.82L 64.98578124999999-69.58Q 67.62578124999999-54.44  70.60578124999998-39.43Q 73.58578124999998-24.41  77.09578124999999-9.08L 77.09578124999999-9.08Q 80.32578124999998-24.32  83.25578124999998-39.38Q 86.18578124999999-54.44  89.06578124999999-69.82L 89.06578124999999-69.82ZM 142.72515625-37.4L 142.72515625-37.4Q 142.72515625-32.13  142.01515625000002-27.12Q 141.30515625-22.12  140.01515625000002-17.63Q 138.72515625-13.13  136.81515625000003-9.38Q 134.91515625000002-5.62  132.54515625000002-2.91Q 130.17515625000001-0.2  127.31515625000002 1.34Q 124.46515625 2.88  121.24515625000001 2.88L 121.24515625000001 2.88Q 117.96515625 2.88  115.25515625000001 1.37Q 112.54515625000002-0.15  110.37515625000002-2.88Q 108.20515625000002-5.62  106.56515625000002-9.38Q 104.93515625000002-13.13  103.83515625000001-17.63Q 102.73515625000002-22.12  102.17515625000001-27.12Q 101.61515625000001-32.13  101.61515625000001-37.4L 101.61515625000001-37.4Q 101.61515625000001-45.21  102.83515625000001-51.73Q 104.05515625000001-58.25  106.59515625000002-62.94Q 109.13515625000001-67.63  113.01515625000002-70.21Q 116.89515625000001-72.8  122.21515625-72.8L 122.21515625-72.8Q 127.83515625000001-72.8  131.73515625000002-70.21Q 135.64515625-67.63  138.08515625-62.94Q 140.52515625-58.25  141.62515625000003-51.73Q 142.72515625-45.21  142.72515625-37.4ZM 133.64515625-37.01L 133.64515625-37.01Q 133.64515625-43.51  133.03515625-48.93Q 132.42515625000001-54.35  131.05515625-58.23Q 129.68515625-62.11  127.51515625000002-64.26Q 125.34515625000002-66.41  122.21515625-66.41L 122.21515625-66.41Q 119.28515625000001-66.41  117.11515625000001-64.26Q 114.94515625000001-62.11  113.52515625000001-58.23Q 112.10515625000002-54.35  111.42515625000001-48.93Q 110.74515625000001-43.51  110.74515625000001-37.01L 110.74515625000001-37.01Q 110.74515625000001-30.42  111.42515625000001-24.37Q 112.10515625000002-18.31  113.47515625000001-13.65Q 114.84515625000002-8.98  116.89515625000001-6.2Q 118.94515625000001-3.42  121.63515625000002-3.42L 121.63515625000002-3.42Q 124.31515625000002-3.42  126.53515625000001-6.2Q 128.75515625000003-8.98  130.34515625-13.65Q 131.93515625-18.31  132.78515625-24.37Q 133.64515625-30.42  133.64515625-37.01Z" data-textpath="MVO" data-text-anchor="middle" data-font-size="100" data-letterspacing="0" data-side="left" data-offset="0.5" data-dx="0" data-dy="0" data-xmlspace="preserve" data-href="" data-font="Englebert" data-font-src="/Content/clientfonts/englebert.woff" data-font-scale="contain" transform="translate(0,0)" data-x="0" data-y="0" fill="url('#linearGradientSkcagwz3cy')"></path>
        </g>
      </svg>
    </g>
    <g transform="matrix(0.5078,0,0,0.5078,153.3746,180.5132)">
      <svg width="278.662109375" height="121" style="overflow: visible;">
        <defs>
          <linearGradient x1="0" y1="0.5" x2="1" y2="0.5" id="linearGradientSkcagwz3c11">
            <stop offset="0%" stop-color="#000000"></stop>
            <stop offset="100%" stop-color="#000000"></stop>
          </linearGradient>
        </defs>
        <g transform="matrix(1,0,0,1,0,45.75)">
          <path d="M 47.31-47.61L 38.92-47.12Q 38.92-51.61  38.13-54.71Q 37.35-57.81  36.16-59.81Q 34.96-61.82  33.57-62.92Q 32.18-64.01  30.96-64.53Q 29.74-65.04  28.93-65.11Q 28.13-65.19  28.08-65.19L 28.08-65.19Q 24.71-65.19  21.92-63.35Q 19.14-61.52  17.16-57.79Q 15.19-54.05  14.09-48.41Q 12.99-42.77  12.99-35.21L 12.99-35.21Q 12.99-27.64  13.99-21.92Q 14.99-16.21  16.8-12.35Q 18.6-8.5  21.17-6.54Q 23.73-4.59  26.9-4.59L 26.9-4.59Q 29.3-4.79  31.35-6.35L 31.35-6.35Q 32.23-6.98  33.13-8.01Q 34.03-9.03  34.84-10.55Q 35.64-12.06  36.33-14.09Q 37.01-16.11  37.4-18.8L 37.4-18.8L 45.21-18.21Q 44.68-14.55  43.6-11.74Q 42.53-8.94  41.14-6.86Q 39.75-4.79  38.16-3.37Q 36.57-1.95  35.01-1.03L 35.01-1.03Q 31.3 1.12  27 1.42L 27 1.42Q 21.29 1.42  16.82-0.9Q 12.35-3.22  9.3-7.79Q 6.25-12.35  4.66-19.14Q 3.08-25.93  3.08-34.81L 3.08-34.81Q 3.08-53.32  9.38-62.77Q 15.67-72.22  28.81-72.22L 28.81-72.22Q 28.96-72.22  29.81-72.17Q 30.66-72.12  31.98-71.83Q 33.3-71.53  34.96-70.92Q 36.62-70.31  38.33-69.14Q 40.04-67.97  41.65-66.21Q 43.26-64.45  44.53-61.84Q 45.8-59.23  46.56-55.71Q 47.31-52.2  47.31-47.61L 47.31-47.61ZM 93.31343750000002-29.1L 93.31343750000002-29.1Q 93.31343750000002-22.07  91.6734375-16.5Q 90.04343750000001-10.94  87.23343750000001-7.06Q 84.4234375-3.17  80.61343750000002-1.1Q 76.80343750000002 0.98  72.51343750000001 0.98L 72.51343750000001 0.98Q 68.16343750000001 0.98  64.35343750000001-1.17Q 60.54343750000001-3.32  57.71343750000001-7.28Q 54.883437500000014-11.23  53.24343750000001-16.77Q 51.61343750000002-22.31  51.61343750000002-29.1L 51.61343750000002-29.1Q 51.61343750000002-34.91  53.053437500000015-39.72Q 54.49343750000001-44.53  57.203437500000014-48Q 59.913437500000015-51.46  63.79343750000001-53.39Q 67.6734375-55.32  72.51343750000001-55.32L 72.51343750000001-55.32Q 77.88343750000001-55.32  81.78343750000002-53.39Q 85.69343750000002-51.46  88.25343750000002-48Q 90.82343750000001-44.53  92.06343750000002-39.72Q 93.31343750000002-34.91  93.31343750000002-29.1ZM 85.74343750000001-29L 85.74343750000001-29Q 85.74343750000001-33.4  84.96343750000001-37.01Q 84.18343750000001-40.63  82.54343750000001-43.24Q 80.90343750000001-45.85  78.41343750000001-47.27Q 75.9234375-48.68  72.51343750000001-48.68L 72.51343750000001-48.68Q 69.43343750000001-48.68  66.96343750000001-47.27Q 64.50343750000002-45.85  62.79343750000001-43.24Q 61.08343750000002-40.63  60.15343750000002-37.01Q 59.233437500000015-33.4  59.233437500000015-29L 59.233437500000015-29Q 59.233437500000015-23.88  60.273437500000014-19.73Q 61.32343750000001-15.58  63.11343750000002-12.6Q 64.89343750000002-9.62  67.31343750000002-8.01Q 69.72343750000002-6.4  72.51343750000001-6.4L 72.51343750000001-6.4Q 75.24343750000001-6.4  77.66343750000001-7.96Q 80.07343750000001-9.52  81.86343750000002-12.45Q 83.6434375-15.38  84.69343750000002-19.56Q 85.74343750000001-23.73  85.74343750000001-29ZM 137.93726562499998-0.2L 131.24726562499998 0.2Q 130.85726562499997-7.23  130.49726562499998-13.16Q 130.12726562499998-19.09  129.837265625-23.29L 129.837265625-23.29Q 129.487265625-28.17  129.147265625-31.98L 129.147265625-31.98Q 128.757265625-37.89  127.65726562499998-40.89Q 126.56726562499999-43.9  124.85726562499998-43.9L 124.85726562499998-43.9Q 123.14726562499999-43.9  121.38726562499998-41.75Q 119.62726562499998-39.6  117.91726562499998-36.04Q 116.20726562499999-32.47  114.67726562499999-27.91Q 113.13726562499998-23.34  111.83726562499999-18.51Q 110.54726562499998-13.67  109.59726562499999-8.94Q 108.64726562499999-4.2  108.15726562499998-0.39L 108.15726562499998-0.39L 101.46726562499998-0.2Q 101.75726562499999-8.3  101.75726562499999-15.58L 101.75726562499999-15.58Q 101.75726562499999-23.19  101.517265625-29.52Q 101.267265625-35.84  100.97726562499999-40.43L 100.97726562499999-40.43Q 100.63726562499998-45.8  100.24726562499998-50.1L 100.24726562499998-50.1L 109.66726562499998-49.71L 109.66726562499998-30.08Q 110.78726562499999-33.3  111.66726562499998-35.5Q 112.547265625-37.7  113.13726562499998-39.06L 113.13726562499998-39.06Q 113.81726562499999-40.67  114.25726562499999-41.6L 114.25726562499999-41.6Q 115.52726562499998-43.99  117.03726562499999-45.87Q 118.55726562499999-47.75  120.18726562499998-49.05Q 121.82726562499998-50.34  123.50726562499999-51.03Q 125.19726562499999-51.71  126.75726562499999-51.71L 126.75726562499999-51.71Q 128.31726562499998-51.71  129.68726562499998-51.03Q 131.05726562499999-50.34  132.10726562499997-48.88Q 133.15726562499998-47.41  133.90726562499998-45.14Q 134.66726562499997-42.87  135.05726562499999-39.7L 135.05726562499999-39.7Q 135.837265625-34.42  136.427265625-28.17L 136.427265625-28.17Q 136.96726562499998-22.8  137.40726562499998-15.63Q 137.837265625-8.45  137.93726562499998-0.2L 137.93726562499998-0.2ZM 182.03507812499998-35.01L 173.245078125-35.3Q 173.335078125-35.74  173.335078125-36.21Q 173.335078125-36.67  173.335078125-37.21L 173.335078125-37.21Q 173.335078125-39.7  172.635078125-41.87Q 171.925078125-44.04  170.62507812500002-45.68Q 169.335078125-47.31  167.485078125-48.27Q 165.62507812500002-49.22  163.37507812500002-49.22L 163.37507812500002-49.22Q 160.795078125-49.22  158.695078125-48.56Q 156.595078125-47.9  155.105078125-46.63Q 153.615078125-45.36  152.785078125-43.48Q 151.955078125-41.6  151.955078125-39.11L 151.955078125-39.11Q 151.955078125-37.7  152.665078125-36.21Q 153.365078125-34.72  154.785078125-33.4Q 156.205078125-32.08  158.275078125-31.05Q 160.355078125-30.03  163.135078125-29.59L 163.135078125-29.59Q 168.355078125-28.71  171.655078125-27.03Q 174.955078125-25.34  176.835078125-23.24Q 178.715078125-21.14  179.395078125-18.9Q 180.075078125-16.65  180.075078125-14.7L 180.075078125-14.7Q 180.075078125-13.48  179.805078125-11.91Q 179.545078125-10.35  178.805078125-8.69Q 178.075078125-7.03  176.78507812499998-5.44Q 175.485078125-3.86  173.435078125-2.61Q 171.385078125-1.37  168.53507812499998-0.59Q 165.675078125 0.2  161.765078125 0.2L 161.765078125 0.2Q 161.37507812500002 0.2  160.03507812499998 0.1Q 158.695078125 0  156.865078125-0.54Q 155.025078125-1.07  152.955078125-2.15Q 150.875078125-3.22  149.025078125-5.18Q 147.165078125-7.13  145.775078125-10.11Q 144.385078125-13.09  143.945078125-17.38L 143.945078125-17.38L 151.955078125-17.82Q 152.295078125-14.99  153.195078125-13.09Q 154.105078125-11.18  155.295078125-9.94Q 156.495078125-8.69  157.78507812499998-8.01Q 159.085078125-7.32  160.225078125-7.01Q 161.37507812500002-6.69  162.185078125-6.64Q 162.985078125-6.59  163.135078125-6.59L 163.135078125-6.59Q 165.185078125-6.64  166.87507812500002-7.3Q 168.555078125-7.96  169.725078125-8.98Q 170.895078125-10.01  171.53507812499998-11.35Q 172.165078125-12.7  172.165078125-14.11L 172.165078125-14.11Q 172.165078125-15.33  171.725078125-16.5Q 171.28507812499998-17.68  170.095078125-18.73Q 168.895078125-19.78  166.825078125-20.65Q 164.745078125-21.53  161.475078125-22.22L 161.475078125-22.22Q 156.205078125-23.24  152.805078125-25.27Q 149.415078125-27.29  147.415078125-29.71Q 145.415078125-32.13  144.625078125-34.62Q 143.845078125-37.11  143.845078125-39.11L 143.845078125-39.11Q 143.845078125-42.09  144.875078125-45.19Q 145.895078125-48.29  148.215078125-50.85Q 150.535078125-53.42  154.295078125-55.05Q 158.055078125-56.69  163.575078125-56.69L 163.575078125-56.69Q 168.795078125-56.35  172.905078125-54.3L 172.905078125-54.3Q 174.655078125-53.42  176.345078125-52.08Q 178.025078125-50.73  179.345078125-48.78Q 180.665078125-46.83  181.465078125-44.21Q 182.275078125-41.6  182.275078125-38.18L 182.275078125-38.18Q 182.275078125-37.45  182.205078125-36.65Q 182.12507812500002-35.84  182.03507812499998-35.01L 182.03507812499998-35.01ZM 219.143203125-50.2L 225.533203125-50.2L 224.513203125 0.39L 218.45320312500002 0.39L 217.823203125-16.6Q 216.743203125-13.38  215.503203125-10.91Q 214.253203125-8.45  212.963203125-6.62Q 211.673203125-4.79  210.373203125-3.49Q 209.083203125-2.2  207.86320312499998-1.32L 207.86320312499998-1.32Q 205.033203125 0.68  202.153203125 1.12L 202.153203125 1.12Q 198.293203125 1.12  195.683203125-0.63Q 193.063203125-2.39  191.483203125-5.91Q 189.893203125-9.42  189.213203125-14.65Q 188.523203125-19.87  188.523203125-26.81L 188.523203125-26.81Q 188.523203125-32.13  188.863203125-38.26Q 189.213203125-44.38  189.843203125-51.51L 189.843203125-51.51L 198.733203125-50.78Q 197.463203125-42.24  196.903203125-35.84Q 196.333203125-29.44  196.333203125-24.71L 196.333203125-24.71Q 196.333203125-20.17  196.733203125-17.02Q 197.123203125-13.87  197.703203125-11.84Q 198.293203125-9.81  199.003203125-8.69Q 199.703203125-7.57  200.393203125-7.03Q 201.073203125-6.49  201.633203125-6.4Q 202.193203125-6.3  202.443203125-6.3L 202.443203125-6.3Q 204.293203125-6.3  206.003203125-7.91Q 207.713203125-9.52  209.233203125-12.21Q 210.743203125-14.89  212.033203125-18.41Q 213.333203125-21.92  214.403203125-25.71Q 215.483203125-29.49  216.333203125-33.33Q 217.183203125-37.16  217.773203125-40.48Q 218.36320312499998-43.8  218.70320312500002-46.36Q 219.043203125-48.93  219.143203125-50.2L 219.143203125-50.2ZM 237.35359374999996-69.48L 245.11359374999998-68.9L 244.14359374999998-0.29L 238.33359374999998-0.29L 237.35359374999996-69.48ZM 261.963125-71L 269.433125-70.51L 269.243125-54.3L 278.953125-54.3L 278.953125-48.1L 269.143125-48.1L 268.453125-0.2L 262.453125-0.2L 262.063125-48.1L 251.073125-48.1L 251.073125-54.3L 262.063125-54.3L 261.963125-71Z" data-textpath="Consult" data-text-anchor="middle" data-font-size="100" data-letterspacing="0" data-side="left" data-offset="0.5" data-dx="0" data-dy="0" data-xmlspace="preserve" data-href="" data-font="Englebert" data-font-src="/Content/clientfonts/englebert.woff" data-font-scale="contain" transform="translate(0,0)" data-x="0" data-y="0" fill="url('#linearGradientSkcagwz3c11')"></path>
        </g>
      </svg>
    </g>
  </g>
</svg>